# Blender v2.81 (sub 16) OBJ File: ''
# www.blender.org
mtllib Front.mtl
o Arrow
v -0.170114 0.023151 -0.167792
v 0.155859 0.023151 -0.167792
v -0.007128 0.023151 -0.425976
v -0.091091 0.023151 -0.167792
v -0.091091 0.023151 0.213135
v 0.078246 0.023151 -0.167792
v 0.078246 0.023151 0.213135
v -0.170114 -0.026849 -0.167792
v -0.007128 -0.026849 -0.425976
v 0.155859 -0.026849 -0.167792
v -0.091091 -0.026849 -0.167792
v -0.091091 -0.026849 0.213135
v 0.078246 -0.026849 -0.167792
v 0.078246 -0.026849 0.213135
vn -0.0000 1.0000 0.0000
vn 0.0000 0.8944 0.4473
vn 0.0000 0.0000 1.0000
vn 0.0000 -1.0000 0.0000
vn -0.0000 -0.8944 0.4473
vn -0.8456 0.0000 -0.5338
vn 0.8456 0.0000 -0.5338
vn -1.0000 0.0000 0.0000
vn 1.0000 0.0000 -0.0000
usemtl SVGMat.003
s 1
f 1//1 2//1 3//1
f 4//1 2//1 1//1
f 5//1 6//1 4//1
f 6//2 2//3 4//1
f 5//1 7//1 6//1
f 8//4 9//4 10//4
f 11//4 8//4 10//4
f 12//4 11//4 13//4
f 13//5 11//4 10//3
f 12//4 13//4 14//4
f 1//6 3//6 9//6 8//6
f 3//7 2//7 10//7 9//7
f 4//3 1//3 8//3 11//3
f 5//8 4//8 11//8 12//8
f 2//3 6//2 13//5 10//3
f 7//3 5//3 12//3 14//3
f 6//9 7//9 14//9 13//9
