# Blender v2.81 (sub 16) OBJ File: ''
# www.blender.org
mtllib Left.mtl
o Arrow
v -0.167792 0.023151 0.170114
v -0.167792 0.023151 -0.155859
v -0.425976 0.023151 0.007128
v -0.167792 0.023151 0.091091
v 0.213135 0.023151 0.091091
v -0.167792 0.023151 -0.078246
v 0.213135 0.023151 -0.078246
v -0.167792 -0.026849 0.170114
v -0.425976 -0.026849 0.007128
v -0.167792 -0.026849 -0.155859
v -0.167792 -0.026849 0.091091
v 0.213135 -0.026849 0.091091
v -0.167792 -0.026849 -0.078246
v 0.213135 -0.026849 -0.078246
vn 0.0000 1.0000 0.0000
vn -1.0000 0.0000 0.0000
vn 0.2004 0.8944 0.3999
vn 1.0000 -0.0000 0.0000
vn 0.0000 0.0000 0.0000
vn -0.0000 -1.0000 0.0000
vn 0.2000 -0.8944 0.4001
vn -0.5338 0.0000 0.8456
vn -0.5338 0.0000 -0.8456
vn 0.0000 -0.0000 1.0000
vn -0.0000 0.0000 -1.0000
usemtl SVGMat.003
s 1
f 1//1 2//1 3//1
f 4//2 2//1 1//1
f 5//1 6//1 4//1
f 6//3 2//4 4//5
f 5//1 7//1 6//1
f 8//6 9//6 10//6
f 11//5 8//6 10//6
f 12//6 11//6 13//6
f 13//7 11//5 10//4
f 12//6 13//6 14//6
f 1//8 3//8 9//8 8//8
f 3//9 2//9 10//9 9//9
f 4//4 1//4 8//4 11//4
f 5//10 4//10 11//10 12//10
f 2//4 6//3 13//7 10//4
f 7//4 5//4 12//4 14//4
f 6//11 7//11 14//11 13//11
