# Blender v2.81 (sub 16) OBJ File: ''
# www.blender.org
mtllib R-back.mtl
o Turn
v 0.121875 0.120596 0.110521
v 0.054861 0.120449 0.368759
v 0.217813 0.120808 0.110521
v 0.121696 0.120596 -0.037220
v 0.121875 0.120596 -0.034712
v 0.120180 0.120592 -0.053336
v 0.117966 0.120587 -0.068897
v 0.115046 0.120581 -0.083888
v 0.111409 0.120573 -0.098298
v 0.107044 0.120563 -0.112113
v 0.101942 0.120552 -0.125321
v 0.096093 0.120539 -0.137908
v 0.089486 0.120524 -0.149862
v 0.082112 0.120508 -0.161170
v 0.073960 0.120490 -0.171820
v 0.065020 0.120470 -0.181797
v 0.055282 0.120449 -0.191091
v 0.045296 0.120427 -0.199314
v -0.019201 0.120284 0.110521
v -0.108091 0.120088 0.110521
v 0.034847 0.120404 -0.206781
v 0.023945 0.120380 -0.213496
v 0.012604 0.120354 -0.219463
v 0.000835 0.120328 -0.224688
v -0.011349 0.120301 -0.229174
v -0.023939 0.120274 -0.232926
v -0.019202 0.120284 -0.029528
v -0.019284 0.120284 -0.030521
v -0.020011 0.120282 -0.037674
v -0.020921 0.120280 -0.044320
v -0.022006 0.120278 -0.050470
v -0.023256 0.120275 -0.056137
v -0.024661 0.120272 -0.061331
v -0.036920 0.120245 -0.235948
v -0.026211 0.120269 -0.066065
v -0.027901 0.120265 -0.070349
v -0.029720 0.120261 -0.074194
v -0.031657 0.120257 -0.077614
v -0.033706 0.120252 -0.080618
v -0.035856 0.120247 -0.083219
v -0.038099 0.120242 -0.085428
v -0.050281 0.120215 -0.238244
v -0.040942 0.120236 -0.087741
v -0.044026 0.120229 -0.089868
v -0.047365 0.120222 -0.091802
v -0.050969 0.120214 -0.093541
v -0.064009 0.120185 -0.239819
v -0.054851 0.120205 -0.095079
v -0.059023 0.120196 -0.096413
v -0.063498 0.120186 -0.097538
v -0.068286 0.120176 -0.098448
v -0.078094 0.120154 -0.240677
v -0.073401 0.120164 -0.099141
v -0.078854 0.120152 -0.099612
v -0.092523 0.120122 -0.240822
v -0.084658 0.120139 -0.099856
v -0.090825 0.120126 -0.099869
v -0.091404 0.120125 -0.099859
v -0.283035 0.119701 -0.099859
v -0.283035 0.119701 -0.240822
v 0.121986 0.070597 0.110521
v 0.217924 0.070809 0.110521
v 0.054972 0.070449 0.368759
v 0.121807 0.070596 -0.037220
v 0.121986 0.070596 -0.034712
v 0.120291 0.070592 -0.053336
v 0.118077 0.070587 -0.068897
v 0.115157 0.070581 -0.083888
v 0.111520 0.070573 -0.098298
v 0.107155 0.070563 -0.112113
v 0.102053 0.070552 -0.125321
v 0.096204 0.070539 -0.137908
v 0.089597 0.070525 -0.149862
v 0.082223 0.070508 -0.161170
v 0.074071 0.070490 -0.171820
v 0.065131 0.070470 -0.181797
v 0.055393 0.070451 -0.191091
v 0.045407 0.070427 -0.199314
v -0.019091 0.070285 0.110521
v -0.107981 0.070089 0.110521
v 0.034958 0.070404 -0.206781
v 0.024056 0.070380 -0.213496
v 0.012715 0.070355 -0.219463
v 0.000946 0.070329 -0.224688
v -0.011239 0.070302 -0.229174
v -0.023829 0.070276 -0.232926
v -0.019092 0.070284 -0.029528
v -0.019174 0.070286 -0.030521
v -0.019901 0.070282 -0.037674
v -0.020811 0.070282 -0.044320
v -0.021896 0.070278 -0.050470
v -0.023145 0.070275 -0.056137
v -0.024550 0.070272 -0.061331
v -0.036810 0.070245 -0.235948
v -0.026101 0.070269 -0.066065
v -0.027791 0.070267 -0.070349
v -0.029610 0.070263 -0.074194
v -0.031547 0.070259 -0.077614
v -0.033596 0.070252 -0.080618
v -0.035746 0.070249 -0.083219
v -0.037989 0.070242 -0.085428
v -0.050171 0.070216 -0.238244
v -0.040832 0.070236 -0.087741
v -0.043916 0.070229 -0.089868
v -0.047255 0.070222 -0.091802
v -0.050859 0.070214 -0.093541
v -0.063899 0.070187 -0.239819
v -0.054741 0.070205 -0.095079
v -0.058913 0.070196 -0.096413
v -0.063388 0.070186 -0.097537
v -0.068176 0.070176 -0.098448
v -0.077984 0.070154 -0.240677
v -0.073291 0.070166 -0.099141
v -0.078744 0.070154 -0.099612
v -0.092413 0.070122 -0.240822
v -0.084548 0.070140 -0.099856
v -0.090715 0.070126 -0.099869
v -0.091294 0.070125 -0.099859
v -0.282924 0.069701 -0.099859
v -0.282924 0.069701 -0.240822
vn -0.0022 1.0000 -0.0000
vn -0.0023 1.0000 -0.0000
vn 0.0022 -1.0000 0.0000
vn 0.0021 -1.0000 0.0000
vn 0.0023 -1.0000 -0.0000
vn 0.0024 -1.0000 0.0000
vn -0.0232 -0.9997 0.0006
vn 0.0038 -1.0000 -0.0000
vn 0.0051 -1.0000 -0.0001
vn 0.0018 -1.0000 -0.0000
vn 0.0026 -1.0000 -0.0000
vn 0.0028 -1.0000 0.0000
vn 0.0014 -1.0000 0.0001
vn 0.0019 -1.0000 0.0000
vn 0.0027 -1.0000 -0.0000
vn 0.0020 -1.0000 0.0000
vn -0.0000 0.0000 -1.0000
vn 0.8457 0.0019 0.5337
vn 0.9975 0.0022 -0.0712
vn 1.0000 0.0022 -0.0000
vn 0.9956 0.0022 -0.0936
vn 0.9900 0.0022 -0.1409
vn 0.9816 0.0022 -0.1912
vn 0.9696 0.0021 -0.2447
vn 0.9535 0.0021 -0.3013
vn 0.9328 0.0021 -0.3603
vn 0.9069 0.0020 -0.4214
vn 0.8752 0.0019 -0.4837
vn 0.8376 0.0019 -0.5462
vn 0.7941 0.0018 -0.6078
vn 0.7448 0.0016 -0.6673
vn 0.6904 0.0015 -0.7234
vn 0.6357 0.0014 -0.7720
vn -0.8457 -0.0019 0.5337
vn 0.5814 0.0013 -0.8136
vn 0.5244 0.0012 -0.8514
vn 0.4656 0.0010 -0.8850
vn 0.4058 0.0009 -0.9140
vn 0.3455 0.0008 -0.9384
vn 0.2856 0.0006 -0.9583
vn -1.0000 -0.0022 0.0000
vn -0.9966 -0.0022 0.0829
vn -0.9949 -0.0022 0.1011
vn -0.9908 -0.0022 0.1357
vn -0.9848 -0.0022 0.1737
vn -0.9766 -0.0022 0.2152
vn -0.9653 -0.0021 0.2611
vn 0.2267 0.0005 -0.9740
vn -0.9503 -0.0021 0.3113
vn -0.9302 -0.0021 0.3670
vn -0.9039 -0.0020 0.4277
vn -0.8701 -0.0019 0.4928
vn -0.8261 -0.0018 0.5635
vn -0.7708 -0.0017 0.6371
vn -0.7017 -0.0016 0.7125
vn 0.1694 0.0004 -0.9856
vn -0.6311 -0.0014 0.7757
vn -0.5678 -0.0013 0.8232
vn -0.5012 -0.0011 0.8653
vn -0.4346 -0.0010 0.9006
vn 0.1140 0.0003 -0.9935
vn -0.3683 -0.0008 0.9297
vn -0.3046 -0.0007 0.9525
vn -0.2437 -0.0005 0.9698
vn -0.1868 -0.0004 0.9824
vn 0.0608 0.0001 -0.9981
vn -0.1343 -0.0003 0.9909
vn -0.0861 -0.0002 0.9963
vn 0.0050 0.0000 -1.0000
vn 0.0100 0.0000 -0.9999
vn -0.0420 -0.0001 0.9991
vn -0.0021 -0.0000 1.0000
vn 0.0163 0.0000 0.9999
vn 0.0000 -0.0000 1.0000
usemtl SVGMat.001
s 1
f 1//1 2//1 3//1
f 4//1 1//1 5//1
f 4//1 2//1 1//1
f 6//1 2//1 4//1
f 7//1 2//1 6//1
f 8//1 2//1 7//1
f 9//1 2//1 8//1
f 10//1 2//1 9//1
f 11//1 2//1 10//1
f 12//1 2//1 11//1
f 13//1 2//1 12//1
f 14//1 2//1 13//1
f 15//1 2//1 14//1
f 16//1 2//1 15//1
f 17//1 2//1 16//1
f 18//1 2//1 17//1
f 18//1 19//1 2//1
f 19//1 20//1 2//1
f 21//1 19//1 18//1
f 22//1 19//1 21//1
f 23//1 19//1 22//1
f 24//1 19//1 23//1
f 25//1 19//1 24//1
f 26//1 27//1 25//1
f 27//1 19//1 25//1
f 26//1 28//2 27//1
f 26//1 29//1 28//2
f 26//1 30//1 29//1
f 26//1 31//1 30//1
f 26//1 32//1 31//1
f 26//1 33//1 32//1
f 34//1 33//1 26//1
f 34//1 35//1 33//1
f 34//1 36//1 35//1
f 34//1 37//1 36//1
f 34//1 38//1 37//1
f 34//1 39//1 38//1
f 34//1 40//1 39//1
f 34//1 41//1 40//1
f 42//1 41//1 34//1
f 42//1 43//1 41//1
f 42//1 44//1 43//1
f 42//1 45//1 44//1
f 42//1 46//1 45//1
f 47//1 46//1 42//1
f 47//1 48//1 46//1
f 47//1 49//1 48//1
f 47//1 50//1 49//1
f 47//1 51//1 50//1
f 52//1 51//1 47//1
f 52//1 53//1 51//1
f 52//1 54//1 53//1
f 55//1 54//1 52//1
f 55//1 56//1 54//1
f 55//1 57//1 56//1
f 55//1 58//1 57//1
f 55//1 59//1 58//1
f 60//1 59//1 55//1
f 61//3 62//3 63//3
f 64//3 65//4 61//3
f 64//3 61//3 63//3
f 66//3 64//3 63//3
f 67//3 66//3 63//3
f 68//3 67//3 63//3
f 69//3 68//3 63//3
f 70//3 69//3 63//3
f 71//3 70//3 63//3
f 72//3 71//3 63//3
f 73//3 72//3 63//3
f 74//3 73//3 63//3
f 75//3 74//3 63//3
f 76//4 75//3 63//3
f 77//5 76//4 63//3
f 78//5 77//5 63//3
f 78//5 63//3 79//3
f 79//3 63//3 80//3
f 81//3 78//5 79//3
f 82//3 81//3 79//3
f 83//3 82//3 79//3
f 84//3 83//3 79//3
f 85//4 84//3 79//3
f 86//4 85//4 87//6
f 87//6 85//4 79//3
f 86//7 87//7 88//7
f 86//8 88//9 89//10
f 86//8 89//10 90//11
f 86//8 90//11 91//12
f 86//8 91//12 92//5
f 86//8 92//5 93//5
f 94//5 86//8 93//5
f 94//5 93//5 95//13
f 94//5 95//13 96//14
f 94//5 96//14 97//3
f 94//5 97//3 98//15
f 94//5 98//15 99//14
f 94//5 99//14 100//11
f 94//5 100//11 101//12
f 102//4 94//5 101//12
f 102//4 101//12 103//3
f 102//4 103//3 104//3
f 102//4 104//3 105//3
f 102//4 105//3 106//3
f 107//3 102//4 106//3
f 107//3 106//3 108//3
f 107//3 108//3 109//3
f 107//3 109//3 110//3
f 107//3 110//3 111//16
f 112//5 107//3 111//16
f 112//5 111//16 113//16
f 112//5 113//16 114//6
f 115//3 112//5 114//6
f 115//3 114//6 116//6
f 115//3 116//6 117//3
f 115//3 117//3 118//3
f 115//3 118//3 119//3
f 120//3 115//3 119//3
f 1//17 3//17 62//17 61//17
f 3//18 2//18 63//18 62//18
f 4//19 5//19 65//19 64//19
f 5//20 1//20 61//20 65//20
f 6//21 4//21 64//21 66//21
f 7//22 6//22 66//22 67//22
f 8//23 7//23 67//23 68//23
f 9//24 8//24 68//24 69//24
f 10//25 9//25 69//25 70//25
f 11//26 10//26 70//26 71//26
f 12//27 11//27 71//27 72//27
f 13//28 12//28 72//28 73//28
f 14//29 13//29 73//29 74//29
f 15//30 14//30 74//30 75//30
f 16//31 15//31 75//31 76//31
f 17//32 16//32 76//32 77//32
f 18//33 17//33 77//33 78//33
f 20//17 19//17 79//17 80//17
f 2//34 20//34 80//34 63//34
f 21//35 18//35 78//35 81//35
f 22//36 21//36 81//36 82//36
f 23//37 22//37 82//37 83//37
f 24//38 23//38 83//38 84//38
f 25//39 24//39 84//39 85//39
f 26//40 25//40 85//40 86//40
f 19//41 27//41 87//41 79//41
f 27//42 28//42 88//42 87//42
f 28//43 29//43 89//43 88//43
f 29//44 30//44 90//44 89//44
f 30//45 31//45 91//45 90//45
f 31//46 32//46 92//46 91//46
f 32//47 33//47 93//47 92//47
f 34//48 26//48 86//48 94//48
f 33//49 35//49 95//49 93//49
f 35//50 36//50 96//50 95//50
f 36//51 37//51 97//51 96//51
f 37//52 38//52 98//52 97//52
f 38//53 39//53 99//53 98//53
f 39//54 40//54 100//54 99//54
f 40//55 41//55 101//55 100//55
f 42//56 34//56 94//56 102//56
f 41//57 43//57 103//57 101//57
f 43//58 44//58 104//58 103//58
f 44//59 45//59 105//59 104//59
f 45//60 46//60 106//60 105//60
f 47//61 42//61 102//61 107//61
f 46//62 48//62 108//62 106//62
f 48//63 49//63 109//63 108//63
f 49//64 50//64 110//64 109//64
f 50//65 51//65 111//65 110//65
f 52//66 47//66 107//66 112//66
f 51//67 53//67 113//67 111//67
f 53//68 54//68 114//68 113//68
f 55//69 52//70 112//70 115//69
f 54//71 56//71 116//71 114//71
f 56//72 57//72 117//72 116//72
f 57//73 58//73 118//73 117//73
f 58//74 59//74 119//74 118//74
f 60//17 55//69 115//69 120//17
f 59//41 60//41 120//41 119//41
