# Blender v2.81 (sub 16) OBJ File: ''
# www.blender.org
mtllib Right.mtl
o Arrow
v 0.167792 0.023151 -0.170114
v 0.167792 0.023151 0.155859
v 0.425976 0.023151 -0.007128
v 0.167792 0.023151 -0.091091
v -0.213135 0.023151 -0.091091
v 0.167792 0.023151 0.078246
v -0.213135 0.023151 0.078246
v 0.167792 -0.026849 -0.170114
v 0.425976 -0.026849 -0.007128
v 0.167792 -0.026849 0.155859
v 0.167792 -0.026849 -0.091091
v -0.213135 -0.026849 -0.091091
v 0.167792 -0.026849 0.078246
v -0.213135 -0.026849 0.078246
vn -0.0000 1.0000 0.0000
vn 1.0000 0.0000 -0.0000
vn -0.9664 -0.2572 0.0003
vn -1.0000 -0.0002 -0.0000
vn -1.0000 0.0000 -0.0000
vn 0.0000 -1.0000 0.0000
vn 0.0000 -1.0000 0.0003
vn 0.0000 0.0000 0.0000
vn -0.2001 -0.8944 0.4001
vn -1.0000 -0.0000 0.0002
vn 0.5338 0.0000 -0.8456
vn 0.5338 0.0000 0.8456
vn 0.0000 0.0000 -1.0000
vn -0.0000 0.0000 1.0000
usemtl SVGMat.003
s 1
f 1//1 2//1 3//1
f 4//2 2//1 1//1
f 5//1 6//1 4//1
f 6//3 2//4 4//5
f 5//1 7//1 6//1
f 8//6 9//6 10//7
f 11//8 8//6 10//7
f 12//6 11//6 13//6
f 13//9 11//8 10//10
f 12//6 13//6 14//6
f 1//11 3//11 9//11 8//11
f 3//12 2//12 10//12 9//12
f 4//5 1//5 8//5 11//5
f 5//13 4//13 11//13 12//13
f 2//4 6//3 13//9 10//10
f 7//5 5//5 12//5 14//5
f 6//14 7//14 14//14 13//14
